<svg width="150" height="87" viewBox="0 0 150 87" fill="none" xmlns="http://www.w3.org/2000/svg">
<path fill-rule="evenodd" clip-rule="evenodd" d="M117.453 55.3132C117.453 50.8017 119.022 46.9383 122.162 43.7252C125.368 40.5802 129.223 39.0085 133.726 39.0085C138.23 39.0085 142.05 40.581 145.19 43.7252C148.396 46.9391 150 50.8017 150 55.3132C150 59.8254 148.396 63.6543 145.19 66.7993C142.05 70.0132 138.23 71.6194 133.726 71.6194C129.223 71.6194 125.368 70.0132 122.162 66.7993C119.022 63.6551 117.453 59.8261 117.453 55.3132Z" fill="#FCB500"/>
<path fill-rule="evenodd" clip-rule="evenodd" d="M106.554 32.8744L90.1529 65.1287C86.8385 71.6464 81.9286 73.2451 75.424 69.9241L43.2343 53.4897C36.729 50.1687 35.1342 45.249 38.4486 38.7313L54.85 6.47695C58.1643 -0.0414955 63.0735 -1.63945 69.5788 1.68157L101.769 18.1159C108.274 21.4369 109.869 26.3567 106.554 32.8744Z" fill="#2B99FF"/>
<path fill-rule="evenodd" clip-rule="evenodd" d="M58.6817 47.3938C59.9288 44.9418 59.3285 43.0899 56.8814 41.841L30.1646 28.2003C27.7175 26.9507 25.8708 27.5531 24.6237 30.0051L11.0103 56.7756C9.76325 59.2276 10.3636 61.078 12.8107 62.3276L39.5275 75.9683C41.9746 77.2179 43.8221 76.6171 45.0692 74.1651L58.6817 47.3938ZM61.3935 32.968C69.7441 37.2315 71.7919 43.5469 67.5363 51.915L53.9229 78.6855C49.668 87.0529 43.3652 89.1048 35.0147 84.8413L8.29785 71.2006C-0.0527422 66.9372 -2.10059 60.6217 2.15434 52.2544L15.7677 25.4839C20.0234 17.1158 26.3261 15.0638 34.6767 19.3273L61.3935 32.968Z" fill="#22D5EE"/>
</svg>
